<svg width="31" height="24" viewBox="0 0 31 24" fill="none" xmlns="http://www.w3.org/2000/svg">
<path d="M10.3638 23C10.9412 23 11.4093 22.5523 11.4093 22C11.4093 21.4477 10.9412 21 10.3638 21C9.78643 21 9.31836 21.4477 9.31836 22C9.31836 22.5523 9.78643 23 10.3638 23Z" stroke="black" stroke-width="2" stroke-linecap="round" stroke-linejoin="round"/>
<path d="M21.8638 23C22.4412 23 22.9093 22.5523 22.9093 22C22.9093 21.4477 22.4412 21 21.8638 21C21.2864 21 20.8184 21.4477 20.8184 22C20.8184 22.5523 21.2864 23 21.8638 23Z" stroke="black" stroke-width="2" stroke-linecap="round" stroke-linejoin="round"/>
<path d="M2 2H6.18182L8.98364 15.39C9.07924 15.8504 9.34109 16.264 9.72334 16.5583C10.1056 16.8526 10.5839 17.009 11.0745 17H21.2364C21.727 17.009 22.2053 16.8526 22.5876 16.5583C22.9698 16.264 23.2317 15.8504 23.3273 15.39L25 7H7.22727" stroke="black" stroke-width="2" stroke-linecap="round" stroke-linejoin="round"/>
</svg>
